<mxfile host="app.diagrams.net" modified="2023-05-17T14:53:36.981Z" agent="Mozilla/5.0 (Macintosh; Intel Mac OS X 10_15_7) AppleWebKit/537.36 (KHTML, like Gecko) Chrome/113.0.0.0 Safari/537.36" etag="iHcKFfBLd_aVhVCS-iGr" version="21.3.2" type="github">
  <diagram name="第 1 页" id="yn0OOS51cHA8KZ-kcn2y">
    <mxGraphModel dx="2261" dy="1940" grid="1" gridSize="10" guides="1" tooltips="1" connect="1" arrows="1" fold="1" page="1" pageScale="1" pageWidth="827" pageHeight="1169" math="0" shadow="0">
      <root>
        <mxCell id="0" />
        <mxCell id="1" parent="0" />
        <mxCell id="Qb_6oPIhnn_3hvOe22su-3" value="" style="edgeStyle=orthogonalEdgeStyle;rounded=0;orthogonalLoop=1;jettySize=auto;html=1;" parent="1" source="Qb_6oPIhnn_3hvOe22su-1" target="Qb_6oPIhnn_3hvOe22su-2" edge="1">
          <mxGeometry relative="1" as="geometry" />
        </mxCell>
        <mxCell id="Qb_6oPIhnn_3hvOe22su-1" value="直播绑品（API）&lt;br&gt;ecom.kol.selection_pc_api&lt;br&gt;Bind" style="rounded=1;whiteSpace=wrap;html=1;" parent="1" vertex="1">
          <mxGeometry x="-348.75" y="-50" width="198.75" height="60" as="geometry" />
        </mxCell>
        <mxCell id="Qb_6oPIhnn_3hvOe22su-5" value="" style="edgeStyle=orthogonalEdgeStyle;rounded=0;orthogonalLoop=1;jettySize=auto;html=1;" parent="1" source="Qb_6oPIhnn_3hvOe22su-2" target="Qb_6oPIhnn_3hvOe22su-4" edge="1">
          <mxGeometry relative="1" as="geometry" />
        </mxCell>
        <mxCell id="Qb_6oPIhnn_3hvOe22su-2" value="直播绑品（biz）&lt;br&gt;ecom.kol_bind.core&lt;br&gt;LiveBind" style="whiteSpace=wrap;html=1;rounded=1;" parent="1" vertex="1">
          <mxGeometry x="-347.5" y="100" width="197.5" height="60" as="geometry" />
        </mxCell>
        <mxCell id="Qb_6oPIhnn_3hvOe22su-7" value="" style="edgeStyle=orthogonalEdgeStyle;rounded=0;orthogonalLoop=1;jettySize=auto;html=1;" parent="1" source="Qb_6oPIhnn_3hvOe22su-4" target="Qb_6oPIhnn_3hvOe22su-6" edge="1">
          <mxGeometry relative="1" as="geometry" />
        </mxCell>
        <mxCell id="Qb_6oPIhnn_3hvOe22su-4" value="获取用户直播信息&lt;br/&gt;webcast.user.pack&lt;br/&gt;MultiPackedUser" style="whiteSpace=wrap;html=1;rounded=1;" parent="1" vertex="1">
          <mxGeometry x="-347.5" y="240" width="198.75" height="60" as="geometry" />
        </mxCell>
        <mxCell id="Qb_6oPIhnn_3hvOe22su-9" value="" style="edgeStyle=orthogonalEdgeStyle;rounded=0;orthogonalLoop=1;jettySize=auto;html=1;" parent="1" source="Qb_6oPIhnn_3hvOe22su-6" target="Qb_6oPIhnn_3hvOe22su-8" edge="1">
          <mxGeometry relative="1" as="geometry" />
        </mxCell>
        <mxCell id="Qb_6oPIhnn_3hvOe22su-6" value="直播间校验&lt;br/&gt;webcast.room.online_room&lt;br/&gt;MultiGetUserOnlineRoom" style="whiteSpace=wrap;html=1;rounded=1;" parent="1" vertex="1">
          <mxGeometry x="-28.75" y="240" width="198.75" height="60" as="geometry" />
        </mxCell>
        <mxCell id="Qb_6oPIhnn_3hvOe22su-12" style="edgeStyle=orthogonalEdgeStyle;rounded=0;orthogonalLoop=1;jettySize=auto;html=1;entryX=0.5;entryY=0;entryDx=0;entryDy=0;" parent="1" source="Qb_6oPIhnn_3hvOe22su-8" target="Qb_6oPIhnn_3hvOe22su-10" edge="1">
          <mxGeometry relative="1" as="geometry">
            <Array as="points">
              <mxPoint x="390" y="360" />
              <mxPoint x="-250" y="360" />
            </Array>
          </mxGeometry>
        </mxCell>
        <mxCell id="Qb_6oPIhnn_3hvOe22su-8" value="直播间商品列表数量校验&lt;br/&gt;cmp.ecom.alliance_relation&lt;br/&gt;GetUserCustomBindList" style="whiteSpace=wrap;html=1;rounded=1;" parent="1" vertex="1">
          <mxGeometry x="292.49" y="240" width="197.51" height="60" as="geometry" />
        </mxCell>
        <mxCell id="Qb_6oPIhnn_3hvOe22su-29" value="" style="edgeStyle=orthogonalEdgeStyle;rounded=0;orthogonalLoop=1;jettySize=auto;html=1;" parent="1" source="Qb_6oPIhnn_3hvOe22su-10" target="Qb_6oPIhnn_3hvOe22su-28" edge="1">
          <mxGeometry relative="1" as="geometry" />
        </mxCell>
        <mxCell id="Qb_6oPIhnn_3hvOe22su-35" style="edgeStyle=orthogonalEdgeStyle;rounded=0;orthogonalLoop=1;jettySize=auto;html=1;exitX=0.5;exitY=1;exitDx=0;exitDy=0;entryX=0.5;entryY=0;entryDx=0;entryDy=0;" parent="1" source="Qb_6oPIhnn_3hvOe22su-10" target="Qb_6oPIhnn_3hvOe22su-30" edge="1">
          <mxGeometry relative="1" as="geometry" />
        </mxCell>
        <mxCell id="Qb_6oPIhnn_3hvOe22su-10" value="获取联盟Item信息&lt;br/&gt;cmp.ecom.alliance_item&lt;br/&gt;GetItems" style="whiteSpace=wrap;html=1;rounded=1;" parent="1" vertex="1">
          <mxGeometry x="-350" y="420" width="200" height="60" as="geometry" />
        </mxCell>
        <mxCell id="Qb_6oPIhnn_3hvOe22su-33" style="edgeStyle=orthogonalEdgeStyle;rounded=0;orthogonalLoop=1;jettySize=auto;html=1;" parent="1" source="Qb_6oPIhnn_3hvOe22su-13" target="Qb_6oPIhnn_3hvOe22su-32" edge="1">
          <mxGeometry relative="1" as="geometry" />
        </mxCell>
        <mxCell id="Qb_6oPIhnn_3hvOe22su-13" value="获取达人绑定的列表信息&lt;br/&gt; cmp.ecom.alliance_relation GetUserCustomBindList" style="whiteSpace=wrap;html=1;rounded=1;" parent="1" vertex="1">
          <mxGeometry x="-350" y="735" width="200" height="60" as="geometry" />
        </mxCell>
        <mxCell id="Qb_6oPIhnn_3hvOe22su-23" value="" style="edgeStyle=orthogonalEdgeStyle;rounded=0;orthogonalLoop=1;jettySize=auto;html=1;" parent="1" source="Qb_6oPIhnn_3hvOe22su-20" target="Qb_6oPIhnn_3hvOe22su-22" edge="1">
          <mxGeometry relative="1" as="geometry" />
        </mxCell>
        <mxCell id="Qb_6oPIhnn_3hvOe22su-20" value="转链&lt;br/&gt;ecom.buyin.convert_link&lt;br/&gt;GenConvertLink" style="whiteSpace=wrap;html=1;rounded=1;" parent="1" vertex="1">
          <mxGeometry x="-348.75" y="1090" width="200" height="60" as="geometry" />
        </mxCell>
        <mxCell id="Qb_6oPIhnn_3hvOe22su-25" value="" style="edgeStyle=orthogonalEdgeStyle;rounded=0;orthogonalLoop=1;jettySize=auto;html=1;" parent="1" target="Qb_6oPIhnn_3hvOe22su-24" edge="1">
          <mxGeometry relative="1" as="geometry">
            <mxPoint x="151.25" y="1120" as="sourcePoint" />
          </mxGeometry>
        </mxCell>
        <mxCell id="Qb_6oPIhnn_3hvOe22su-22" value="ecom.buyin.settle_relation&lt;br/&gt;GenBuyinTrack" style="whiteSpace=wrap;html=1;rounded=1;" parent="1" vertex="1">
          <mxGeometry x="-27.5" y="1090" width="198.75" height="60" as="geometry" />
        </mxCell>
        <mxCell id="Qb_6oPIhnn_3hvOe22su-27" value="" style="edgeStyle=orthogonalEdgeStyle;rounded=0;orthogonalLoop=1;jettySize=auto;html=1;" parent="1" source="Qb_6oPIhnn_3hvOe22su-24" target="Qb_6oPIhnn_3hvOe22su-26" edge="1">
          <mxGeometry relative="1" as="geometry" />
        </mxCell>
        <mxCell id="Qb_6oPIhnn_3hvOe22su-24" value="cmp.ecom.alliance_plan&lt;br/&gt;GetInstitutionActivityId" style="whiteSpace=wrap;html=1;rounded=1;" parent="1" vertex="1">
          <mxGeometry x="293.74" y="1090" width="197.51" height="60" as="geometry" />
        </mxCell>
        <mxCell id="Qb_6oPIhnn_3hvOe22su-26" value="toutiao.growth.share_rpc&lt;br/&gt;TransUrl" style="whiteSpace=wrap;html=1;rounded=1;" parent="1" vertex="1">
          <mxGeometry x="611.25" y="1090" width="200" height="60" as="geometry" />
        </mxCell>
        <mxCell id="Qb_6oPIhnn_3hvOe22su-31" style="edgeStyle=orthogonalEdgeStyle;rounded=0;orthogonalLoop=1;jettySize=auto;html=1;exitX=0.5;exitY=1;exitDx=0;exitDy=0;entryX=0.5;entryY=0;entryDx=0;entryDy=0;" parent="1" source="Qb_6oPIhnn_3hvOe22su-28" target="Qb_6oPIhnn_3hvOe22su-13" edge="1">
          <mxGeometry relative="1" as="geometry" />
        </mxCell>
        <mxCell id="Qb_6oPIhnn_3hvOe22su-28" value="机审&lt;br&gt;ecom_inspect_machine_audit&lt;br/&gt;AllianceRelationGovernance" style="whiteSpace=wrap;html=1;rounded=1;" parent="1" vertex="1">
          <mxGeometry x="-350" y="580" width="200" height="60" as="geometry" />
        </mxCell>
        <mxCell id="Qb_6oPIhnn_3hvOe22su-36" style="edgeStyle=orthogonalEdgeStyle;rounded=0;orthogonalLoop=1;jettySize=auto;html=1;entryX=0.5;entryY=0;entryDx=0;entryDy=0;" parent="1" source="Qb_6oPIhnn_3hvOe22su-30" target="Qb_6oPIhnn_3hvOe22su-13" edge="1">
          <mxGeometry relative="1" as="geometry">
            <Array as="points">
              <mxPoint x="70" y="690" />
              <mxPoint x="-250" y="690" />
            </Array>
          </mxGeometry>
        </mxCell>
        <mxCell id="Qb_6oPIhnn_3hvOe22su-30" value="&lt;br&gt;cmp.ecom.alliance_item&lt;br&gt;UpdateItem" style="whiteSpace=wrap;html=1;rounded=1;" parent="1" vertex="1">
          <mxGeometry x="-30" y="580" width="200" height="60" as="geometry" />
        </mxCell>
        <mxCell id="Qb_6oPIhnn_3hvOe22su-34" style="edgeStyle=orthogonalEdgeStyle;rounded=0;orthogonalLoop=1;jettySize=auto;html=1;entryX=0.5;entryY=0;entryDx=0;entryDy=0;" parent="1" source="Qb_6oPIhnn_3hvOe22su-32" target="Qb_6oPIhnn_3hvOe22su-20" edge="1">
          <mxGeometry relative="1" as="geometry" />
        </mxCell>
        <mxCell id="Qb_6oPIhnn_3hvOe22su-32" value="&lt;div&gt;直播间绑定商品&lt;/div&gt;&lt;div&gt;cmp.ecom.alliance_relation&amp;nbsp;&lt;/div&gt;&lt;div&gt;BindCustom&lt;/div&gt;" style="whiteSpace=wrap;html=1;rounded=1;" parent="1" vertex="1">
          <mxGeometry x="-349.37" y="909" width="200" height="60" as="geometry" />
        </mxCell>
      </root>
    </mxGraphModel>
  </diagram>
</mxfile>
